<svg width="1024" height="1024" viewBox="0 0 96 96" xmlns="http://www.w3.org/2000/svg">
  <defs>
    <radialGradient id="flameGlow" cx="48" cy="46" r="28" gradientUnits="userSpaceOnUse">
      <stop offset="0%" stop-color="#F5A623" stop-opacity="1" />
      <stop offset="70%" stop-color="#F5A623" stop-opacity="0" />
    </radialGradient>
  </defs>
  <!-- Glow -->
  <rect x="0" y="0" width="96" height="96" fill="url(#flameGlow)" />
  <!-- Tile background -->
  <path d="M74.88 0H21.12C9.45575 0 0 9.45575 0 21.12V74.88C0 86.5443 9.45575 96 21.12 96H74.88C86.5443 96 96 86.5443 96 74.88V21.12C96 9.45575 86.5443 0 74.88 0Z" fill="#1C1B1E" />
  <!-- Fold bars -->
  <path d="M60 67.2H36C35.2047 67.2 34.56 67.8447 34.56 68.64C34.56 69.4352 35.2047 70.08 36 70.08H60C60.7953 70.08 61.44 69.4352 61.44 68.64C61.44 67.8447 60.7953 67.2 60 67.2Z" fill="#F5EDE1" />
  <path d="M55.2 73.92H40.8C40.0047 73.92 39.36 74.5648 39.36 75.36C39.36 76.1553 40.0047 76.8 40.8 76.8H55.2C55.9953 76.8 56.64 76.1553 56.64 75.36C56.64 74.5648 55.9953 73.92 55.2 73.92Z" fill="#F5EDE1" opacity="0.5" />
  <!-- Flame -->
  <path d="M48 22.08C37.44 37.44 33.6 48 40.32 58.56C40.32 51.84 44.16 47.04 48 44.16C51.84 47.04 55.68 51.84 55.68 58.56C62.4 48 58.56 37.44 48 22.08Z" fill="#F5A623" />
</svg>
